<svg width="20" height="16" viewBox="0 0 20 16" fill="none" xmlns="http://www.w3.org/2000/svg">
<path d="M10.9477 15.2138C11.0515 15.3246 11.1686 15.4206 11.2954 15.5H1.5C0.948017 15.5 0.5 15.052 0.5 14.5V13.2C0.5 11.1574 2.15739 9.5 4.2 9.5H4.61536C5.34718 9.81893 6.15143 10 7 10C7.84791 10 8.65504 9.8192 9.38502 9.5H9.50908C9.44969 10.0726 9.67984 10.6364 10.1247 11.0036C9.59358 11.4437 9.36691 12.1614 9.57832 12.8438C9.84767 13.72 10.3236 14.5386 10.9453 15.2112L10.9453 15.2113L10.9477 15.2138ZM9.57877 9.16101C9.57875 9.16106 9.57873 9.16112 9.57872 9.16117L9.8 9.22985L10.0562 9.30937L9.8 9.22975L9.57877 9.16101ZM10.5 4C10.5 5.93323 8.93323 7.5 7 7.5C5.06677 7.5 3.5 5.93323 3.5 4C3.5 2.06677 5.06677 0.5 7 0.5C8.93323 0.5 10.5 2.06677 10.5 4Z" stroke="white"/>
<path d="M19.0696 11.368C19.1508 10.9274 19.1508 10.4774 19.0696 10.0367L19.8758 9.57111C19.9696 9.51798 20.0102 9.40861 19.9789 9.30548C19.7696 8.63048 19.4102 8.01798 18.9414 7.51173C18.8696 7.43361 18.7539 7.41486 18.6602 7.46798L17.8539 7.93361C17.5133 7.64298 17.1227 7.41798 16.7008 7.26798V6.33673C16.7008 6.23048 16.6258 6.13673 16.5227 6.11486C15.8258 5.95861 15.1164 5.96486 14.4539 6.11486C14.3508 6.13673 14.2758 6.23048 14.2758 6.33673V7.26798C13.8539 7.41798 13.4633 7.64298 13.1227 7.93361L12.3164 7.46798C12.2258 7.41486 12.1071 7.43361 12.0352 7.51173C11.5664 8.01798 11.2071 8.63048 10.9977 9.30548C10.9664 9.40861 11.0102 9.51798 11.1008 9.57111L11.9071 10.0367C11.8258 10.4774 11.8258 10.9274 11.9071 11.368L11.1008 11.8336C11.0071 11.8867 10.9664 11.9961 10.9977 12.0992C11.2071 12.7742 11.5664 13.3836 12.0352 13.893C12.1071 13.9711 12.2227 13.9899 12.3164 13.9367L13.1227 13.4711C13.4633 13.7617 13.8539 13.9867 14.2758 14.1367V15.068C14.2758 15.1742 14.3508 15.268 14.4539 15.2899C15.1508 15.4461 15.8602 15.4399 16.5227 15.2899C16.6258 15.268 16.7008 15.1742 16.7008 15.068V14.1367C17.1227 13.9867 17.5133 13.7617 17.8539 13.4711L18.6602 13.9367C18.7508 13.9899 18.8696 13.9711 18.9414 13.893C19.4102 13.3867 19.7696 12.7742 19.9789 12.0992C20.0102 11.9961 19.9664 11.8867 19.8758 11.8336L19.0696 11.368ZM15.4914 12.218C14.6539 12.218 13.9758 11.5367 13.9758 10.7024C13.9758 9.86798 14.6571 9.18673 15.4914 9.18673C16.3258 9.18673 17.0071 9.86798 17.0071 10.7024C17.0071 11.5367 16.3289 12.218 15.4914 12.218Z" fill="white"/>
</svg>
