<svg width="12" height="12" viewBox="0 0 12 12" fill="none" xmlns="http://www.w3.org/2000/svg">
<path d="M11.6694 3.32884L10.5889 4.40935C10.4788 4.51952 10.3006 4.51952 10.1905 4.40935L7.58881 1.80769C7.47865 1.69753 7.47865 1.5194 7.58881 1.40924L8.66932 0.328724C9.10762 -0.109575 9.82015 -0.109575 10.2608 0.328724L11.6694 1.73737C12.1101 2.17567 12.1101 2.8882 11.6694 3.32884ZM6.66065 2.3374L0.505715 8.49233L0.00882 11.3401C-0.0591515 11.7245 0.276018 12.0573 0.660408 11.9917L3.50818 11.4924L9.66311 5.33752C9.77327 5.22736 9.77327 5.04922 9.66311 4.93906L7.06144 2.3374C6.94894 2.22724 6.77081 2.22724 6.66065 2.3374ZM2.90815 7.96496C2.77924 7.83605 2.77924 7.6298 2.90815 7.50088L6.51767 3.89137C6.64658 3.76245 6.85284 3.76245 6.98175 3.89137C7.11067 4.02028 7.11067 4.22654 6.98175 4.35545L3.37223 7.96496C3.24332 8.09388 3.03707 8.09388 2.90815 7.96496ZM2.06203 9.93614H3.18707V10.787L1.67529 11.0518L0.946357 10.3229L1.21121 8.81109H2.06203V9.93614Z" fill="black"/>
</svg>
