<svg width="16" height="16" viewBox="0 0 16 16" fill="none" xmlns="http://www.w3.org/2000/svg">
<path d="M11.3333 11.3333V13.3333C11.3333 13.5101 11.2631 13.6797 11.1381 13.8047C11.013 13.9298 10.8435 14 10.6667 14H2.66667C2.48986 14 2.32029 13.9298 2.19526 13.8047C2.07024 13.6797 2 13.5101 2 13.3333V2.66667C2 2.48986 2.07024 2.32029 2.19526 2.19526C2.32029 2.07024 2.48986 2 2.66667 2H10.6667" stroke="white" stroke-linecap="round" stroke-linejoin="round"/>
<path d="M14.0001 9.99984L12.1134 8.11317M8.66675 11.3332H4.66675M6.00008 8.6665H4.66675M8.66675 6.6665C8.66675 7.06207 8.78405 7.44875 9.00381 7.77764C9.22357 8.10654 9.53593 8.36289 9.90138 8.51426C10.2668 8.66564 10.669 8.70524 11.0569 8.62807C11.4449 8.5509 11.8013 8.36042 12.081 8.08072C12.3607 7.80101 12.5511 7.44465 12.6283 7.05668C12.7055 6.66872 12.6659 6.26659 12.5145 5.90114C12.3631 5.53568 12.1068 5.22333 11.7779 5.00356C11.449 4.7838 11.0623 4.6665 10.6667 4.6665C10.1363 4.6665 9.62761 4.87722 9.25253 5.25229C8.87746 5.62736 8.66675 6.13607 8.66675 6.6665Z" stroke="white" stroke-linecap="round" stroke-linejoin="round"/>
</svg>
