<svg width="147" height="40" viewBox="0 0 147 40" fill="none" xmlns="http://www.w3.org/2000/svg">
<g clip-path="url(#clip0_68_293)">
<path d="M4.09368 26.71C2.25383 20.5975 17.8006 15.2204 27.6899 14.7608C26.7239 17.6562 25.39 21.0112 24.0561 24.1823C22.9522 24.2742 18.9045 24.7798 15.5468 26.71C11.0391 29.3756 20.2844 34.4311 21.6183 34.4311C22.9062 34.4311 32.5195 11.0381 32.1515 8.28063C31.7835 5.93674 7.7274 14.2093 0.321975 16.783C0.0919929 17.9319 0 19.0809 0 20.2758C0 29.8812 6.71548 37.9239 15.6848 39.9921C10.3032 36.4073 5.1056 30.111 4.09368 26.71Z" fill="white"/>
<path d="M28.8397 1.8926C26.2179 0.69768 23.3202 0.00830078 20.2844 0.00830078C12.787 0.00830078 6.25549 4.05266 2.75977 10.0732C7.31341 8.32681 18.5365 4.19053 28.8397 1.8926Z" fill="white"/>
<path d="M39.0049 12.5088C37.257 20.9652 32.1054 32.1331 28.0117 39.0269C35.3711 35.9936 40.5687 28.7322 40.5687 20.2758C40.5687 17.5183 40.0168 14.8986 39.0049 12.5088Z" fill="white"/>
<path d="M85.6454 18.7594C87.0253 14.1176 90.705 12.0954 95.3507 13.1524L94.3847 19.4947C83.4376 16.1398 86.1514 27.2158 85.8754 33.8798H83.6216C81.2757 33.8798 79.3899 31.9955 79.3899 29.6975V13.5661H85.7834L85.6454 18.7594Z" fill="white"/>
<path d="M103.814 1.75439V22.5736L112.047 13.5658H119.821L110.851 22.5736L120.695 33.8795H112.737L103.814 23.1251V33.8795H97.3745V8.1886C97.3745 4.64979 100.272 1.75439 103.814 1.75439Z" fill="white"/>
<path d="M140.381 23.6767C140.381 21.8844 139.875 20.4137 138.909 19.3566C137.897 18.2996 136.518 17.7481 134.816 17.7481C133.068 17.7481 131.688 18.2996 130.676 19.3566C129.71 20.4137 129.204 21.8384 129.204 23.6767C129.204 25.5151 129.664 26.9398 130.676 27.9968C131.642 29.0079 133.022 29.5135 134.77 29.5135C136.564 29.5135 137.943 29.0079 138.909 27.9968C139.921 26.9398 140.381 25.5151 140.381 23.6767ZM146.269 33.8795H140.013L140.105 30.9842C139.231 32.271 138.219 33.1902 136.977 33.7876C135.736 34.3851 134.218 34.7068 132.47 34.7068C129.526 34.7068 127.18 33.6957 125.34 31.6735C123.547 29.6973 122.673 27.0317 122.673 23.7687C122.673 20.3218 123.547 17.6562 125.294 15.7259C127.088 13.8416 129.526 12.8765 132.7 12.8765C134.356 12.8765 135.782 13.1982 137.023 13.8876C138.265 14.5769 139.323 15.588 140.151 16.9208V13.5658H146.269V33.8795Z" fill="white"/>
<path d="M66.6029 23.9987L62.6012 13.9797L58.6915 23.9987H66.6029ZM47.9744 33.9258L58.8295 7.82129H61.2673C64.3031 7.82129 67.0169 9.61367 68.2128 12.4171L77.2741 33.9258H70.3286L68.0288 28.3648H56.9437L54.5979 33.9258H47.9744Z" fill="white"/>
</g>
<defs>
<clipPath id="clip0_68_293">
<rect width="146.269" height="40" fill="white"/>
</clipPath>
</defs>
</svg>
