<svg width="14" height="12" viewBox="0 0 14 12" fill="none" xmlns="http://www.w3.org/2000/svg">
<path d="M3.85892 4.71429C3.38481 4.71429 3.00178 5.09732 3.00178 5.57143C3.00178 6.04554 3.38481 6.42857 3.85892 6.42857C4.33303 6.42857 4.71606 6.04554 4.71606 5.57143C4.71606 5.09732 4.33303 4.71429 3.85892 4.71429ZM6.85892 4.71429C6.38481 4.71429 6.00178 5.09732 6.00178 5.57143C6.00178 6.04554 6.38481 6.42857 6.85892 6.42857C7.33303 6.42857 7.71606 6.04554 7.71606 5.57143C7.71606 5.09732 7.33303 4.71429 6.85892 4.71429ZM9.85892 4.71429C9.38481 4.71429 9.00178 5.09732 9.00178 5.57143C9.00178 6.04554 9.38481 6.42857 9.85892 6.42857C10.333 6.42857 10.7161 6.04554 10.7161 5.57143C10.7161 5.09732 10.333 4.71429 9.85892 4.71429ZM6.85892 0C3.07142 0 0.00177772 2.49375 0.00177772 5.57143C0.00177772 6.84643 0.534813 8.01429 1.41874 8.95446C1.01963 10.0098 0.189278 10.9045 0.175885 10.9152C-0.000900852 11.1027 -0.0491151 11.3759 0.0526706 11.6116C0.154456 11.8473 0.387492 12 0.644635 12C2.29196 12 3.59106 11.3116 4.37053 10.7598C5.14464 11.0036 5.98035 11.1429 6.85892 11.1429C10.6464 11.1429 13.7161 8.64911 13.7161 5.57143C13.7161 2.49375 10.6464 0 6.85892 0ZM6.85892 9.85714C6.14374 9.85714 5.4366 9.74732 4.75892 9.53304L4.15088 9.34018L3.62856 9.70982C3.24553 9.98036 2.72053 10.283 2.08838 10.4866C2.28392 10.1625 2.4741 9.79821 2.62142 9.40982L2.90535 8.65714L2.35356 8.07321C1.86874 7.55625 1.28749 6.70179 1.28749 5.57143C1.28749 3.20893 3.7866 1.28571 6.85892 1.28571C9.93124 1.28571 12.4303 3.20893 12.4303 5.57143C12.4303 7.93393 9.93124 9.85714 6.85892 9.85714Z" fill="black"/>
</svg>
