<svg width="22" height="22" viewBox="0 0 22 22" fill="none" xmlns="http://www.w3.org/2000/svg">
<path fill-rule="evenodd" clip-rule="evenodd" d="M13.0347 2.03469C13.6674 1.40195 14.5607 1.14583 15.5833 1.14583H17.4166C18.4393 1.14583 19.3325 1.40195 19.9653 2.03469C20.598 2.66743 20.8541 3.56069 20.8541 4.58333V6.41666C20.8541 7.4393 20.598 8.33256 19.9653 8.9653C19.3325 9.59804 18.4393 9.85416 17.4166 9.85416H15.5833C14.5607 9.85416 13.6674 9.59804 13.0347 8.9653C12.4019 8.33256 12.1458 7.4393 12.1458 6.41666V4.58333C12.1458 3.56069 12.4019 2.66743 13.0347 2.03469ZM14.0069 3.00696C13.723 3.29089 13.5208 3.77264 13.5208 4.58333V6.41666C13.5208 7.22735 13.723 7.7091 14.0069 7.99303C14.2909 8.27695 14.7726 8.47916 15.5833 8.47916H17.4166C18.2273 8.47916 18.7091 8.27695 18.993 7.99303C19.2769 7.7091 19.4791 7.22735 19.4791 6.41666V4.58333C19.4791 3.77264 19.2769 3.29089 18.993 3.00696C18.7091 2.72304 18.2273 2.52083 17.4166 2.52083H15.5833C14.7726 2.52083 14.2909 2.72304 14.0069 3.00696Z" fill="black"/>
<path fill-rule="evenodd" clip-rule="evenodd" d="M2.03468 13.0347C2.66742 12.402 3.56067 12.1458 4.58331 12.1458H6.41665C7.43929 12.1458 8.33254 12.402 8.96528 13.0347C9.59802 13.6674 9.85415 14.5607 9.85415 15.5833V17.4167C9.85415 18.4393 9.59802 19.3326 8.96528 19.9653C8.33254 20.598 7.43929 20.8542 6.41665 20.8542H4.58331C3.56067 20.8542 2.66742 20.598 2.03468 19.9653C1.40194 19.3326 1.14581 18.4393 1.14581 17.4167V15.5833C1.14581 14.5607 1.40194 13.6674 2.03468 13.0347ZM3.00695 14.007C2.72302 14.2909 2.52081 14.7726 2.52081 15.5833V17.4167C2.52081 18.2274 2.72302 18.7091 3.00695 18.993C3.29088 19.277 3.77262 19.4792 4.58331 19.4792H6.41665C7.22734 19.4792 7.70908 19.277 7.99301 18.993C8.27694 18.7091 8.47915 18.2274 8.47915 17.4167V15.5833C8.47915 14.7726 8.27694 14.2909 7.99301 14.007C7.70908 13.723 7.22734 13.5208 6.41665 13.5208H4.58331C3.77262 13.5208 3.29088 13.723 3.00695 14.007Z" fill="black"/>
<path fill-rule="evenodd" clip-rule="evenodd" d="M5.49998 2.52083C3.85463 2.52083 2.52081 3.85465 2.52081 5.49999C2.52081 7.14534 3.85463 8.47916 5.49998 8.47916C7.14533 8.47916 8.47915 7.14534 8.47915 5.49999C8.47915 3.85465 7.14533 2.52083 5.49998 2.52083ZM1.14581 5.49999C1.14581 3.09526 3.09524 1.14583 5.49998 1.14583C7.90472 1.14583 9.85415 3.09526 9.85415 5.49999C9.85415 7.90473 7.90472 9.85416 5.49998 9.85416C3.09524 9.85416 1.14581 7.90473 1.14581 5.49999Z" fill="black"/>
<path fill-rule="evenodd" clip-rule="evenodd" d="M16.5 13.5208C14.8546 13.5208 13.5208 14.8546 13.5208 16.5C13.5208 18.1453 14.8546 19.4792 16.5 19.4792C18.1453 19.4792 19.4791 18.1453 19.4791 16.5C19.4791 14.8546 18.1453 13.5208 16.5 13.5208ZM12.1458 16.5C12.1458 14.0953 14.0952 12.1458 16.5 12.1458C18.9047 12.1458 20.8541 14.0953 20.8541 16.5C20.8541 18.9047 18.9047 20.8542 16.5 20.8542C14.0952 20.8542 12.1458 18.9047 12.1458 16.5Z" fill="black"/>
</svg>
