<svg width="32" height="32" viewBox="0 0 32 32" fill="none" xmlns="http://www.w3.org/2000/svg">
<path d="M13 11.2C13 10.8817 13.1264 10.5765 13.3515 10.3515C13.5765 10.1264 13.8817 10 14.2 10H17.8C18.1183 10 18.4235 10.1264 18.6485 10.3515C18.8736 10.5765 19 10.8817 19 11.2V12.4H21.4C21.5591 12.4 21.7117 12.4632 21.8243 12.5757C21.9368 12.6883 22 12.8409 22 13C22 13.1591 21.9368 13.3117 21.8243 13.4243C21.7117 13.5368 21.5591 13.6 21.4 13.6H20.7586L20.2384 20.8852C20.2169 21.188 20.0814 21.4713 19.8593 21.6781C19.6372 21.885 19.3449 22 19.0414 22H12.958C12.6545 22 12.3622 21.885 12.1401 21.6781C11.918 21.4713 11.7825 21.188 11.761 20.8852L11.242 13.6H10.6C10.4409 13.6 10.2883 13.5368 10.1757 13.4243C10.0632 13.3117 10 13.1591 10 13C10 12.8409 10.0632 12.6883 10.1757 12.5757C10.2883 12.4632 10.4409 12.4 10.6 12.4H13V11.2ZM14.2 12.4H17.8V11.2H14.2V12.4ZM12.4444 13.6L12.9586 20.8H19.042L19.5562 13.6H12.4444ZM14.8 14.8C14.9591 14.8 15.1117 14.8632 15.2243 14.9757C15.3368 15.0883 15.4 15.2409 15.4 15.4V19C15.4 19.1591 15.3368 19.3117 15.2243 19.4243C15.1117 19.5368 14.9591 19.6 14.8 19.6C14.6409 19.6 14.4883 19.5368 14.3757 19.4243C14.2632 19.3117 14.2 19.1591 14.2 19V15.4C14.2 15.2409 14.2632 15.0883 14.3757 14.9757C14.4883 14.8632 14.6409 14.8 14.8 14.8ZM17.2 14.8C17.3591 14.8 17.5117 14.8632 17.6243 14.9757C17.7368 15.0883 17.8 15.2409 17.8 15.4V19C17.8 19.1591 17.7368 19.3117 17.6243 19.4243C17.5117 19.5368 17.3591 19.6 17.2 19.6C17.0409 19.6 16.8883 19.5368 16.7757 19.4243C16.6632 19.3117 16.6 19.1591 16.6 19V15.4C16.6 15.2409 16.6632 15.0883 16.7757 14.9757C16.8883 14.8632 17.0409 14.8 17.2 14.8Z" fill="#0D0D0D"/>
</svg>
