<svg width="11" height="11" viewBox="0 0 11 11" fill="none" xmlns="http://www.w3.org/2000/svg">
<path d="M1.83331 3.20833H9.16665M7.33331 3.20833V1.83333C7.33331 1.71178 7.28502 1.5952 7.19907 1.50924C7.11312 1.42329 6.99654 1.375 6.87498 1.375H4.12498C4.00342 1.375 3.88684 1.42329 3.80089 1.50924C3.71494 1.5952 3.66665 1.71178 3.66665 1.83333V3.20833M4.58331 5.04167V7.79167M6.41665 5.04167V7.79167M8.24998 9.16667V3.20833H2.74998V9.16667C2.74998 9.28822 2.79827 9.4048 2.88422 9.49076C2.97018 9.57671 3.08676 9.625 3.20831 9.625H7.79165C7.9132 9.625 8.02978 9.57671 8.11574 9.49076C8.20169 9.4048 8.24998 9.28822 8.24998 9.16667Z" stroke="black" stroke-width="0.5" stroke-linecap="round" stroke-linejoin="round"/>
</svg>
