<svg width="152" height="84" viewBox="0 0 152 84" fill="none" xmlns="http://www.w3.org/2000/svg">
<rect opacity="0.8" x="0.5" y="2.5" width="151" height="81" rx="1.5" stroke="black" stroke-dasharray="2 2"/>
<path d="M5.632 73H3.528V67.664H5.632C7.304 67.664 8.464 68.728 8.464 70.336C8.464 71.944 7.304 73 5.632 73ZM5.632 72C6.688 72 7.304 71.24 7.304 70.336C7.304 69.392 6.728 68.664 5.632 68.664H4.664V72H5.632ZM12.9102 73H11.8942V72.512C11.6302 72.808 11.1662 73.096 10.5342 73.096C9.68619 73.096 9.28619 72.632 9.28619 71.88V69.136H10.3022V71.48C10.3022 72.016 10.5822 72.192 11.0142 72.192C11.4062 72.192 11.7182 71.976 11.8942 71.752V69.136H12.9102V73ZM19.775 73H18.751V70.56C18.751 70.2 18.591 69.944 18.175 69.944C17.815 69.944 17.519 70.184 17.375 70.392V73H16.351V70.56C16.351 70.2 16.191 69.944 15.775 69.944C15.423 69.944 15.127 70.184 14.975 70.4V73H13.959V69.136H14.975V69.64C15.135 69.408 15.647 69.04 16.239 69.04C16.807 69.04 17.167 69.304 17.311 69.744C17.535 69.392 18.047 69.04 18.639 69.04C19.351 69.04 19.775 69.416 19.775 70.208V73ZM26.6275 73H25.6035V70.56C25.6035 70.2 25.4435 69.944 25.0275 69.944C24.6675 69.944 24.3715 70.184 24.2275 70.392V73H23.2035V70.56C23.2035 70.2 23.0435 69.944 22.6275 69.944C22.2755 69.944 21.9795 70.184 21.8275 70.4V73H20.8115V69.136H21.8275V69.64C21.9875 69.408 22.4995 69.04 23.0915 69.04C23.6595 69.04 24.0195 69.304 24.1635 69.744C24.3875 69.392 24.8995 69.04 25.4915 69.04C26.2035 69.04 26.6275 69.416 26.6275 70.208V73ZM27.528 74.512L27.68 73.6C27.768 73.64 27.904 73.664 28 73.664C28.264 73.664 28.44 73.592 28.536 73.384L28.68 73.056L27.112 69.136H28.2L29.208 71.824L30.216 69.136H31.312L29.496 73.632C29.208 74.36 28.696 74.552 28.032 74.568C27.912 74.568 27.656 74.544 27.528 74.512Z" fill="white"/>
<path d="M124.5 11C122.455 11 120.708 12.244 120 14C120.708 15.756 122.455 17 124.5 17C126.545 17 128.292 15.756 129 14C128.292 12.244 126.545 11 124.5 11ZM124.5 16C123.371 16 122.455 15.104 122.455 14C122.455 12.896 123.371 12 124.5 12C125.629 12 126.545 12.896 126.545 14C126.545 15.104 125.629 16 124.5 16ZM124.5 12.8C123.821 12.8 123.273 13.336 123.273 14C123.273 14.664 123.821 15.2 124.5 15.2C125.179 15.2 125.727 14.664 125.727 14C125.727 13.336 125.179 12.8 124.5 12.8Z" fill="white"/>
<path d="M139 10C139.686 10 140.246 10.5313 140.27 11.1956L140.271 11.2413L141.644 11.2411C141.841 11.2411 142 11.3967 142 11.5887C142 11.771 141.856 11.9205 141.673 11.935L141.644 11.9362H141.407L141.076 16.2195C141.042 16.6598 140.666 17 140.214 17H137.786C137.334 17 136.958 16.6598 136.924 16.2195L136.593 11.9362H136.356C136.169 11.9362 136.016 11.7958 136.001 11.6171L136 11.5887C136 11.4063 136.144 11.2568 136.327 11.2423L136.356 11.2411H137.729C137.729 10.5861 138.248 10.0496 138.907 10.0033L138.953 10.0008L139 10ZM139.763 12.5816C139.631 12.5816 139.523 12.6792 139.51 12.8044L139.508 12.8298V15.2128L139.51 15.2381C139.523 15.3633 139.631 15.461 139.763 15.461C139.894 15.461 140.003 15.3633 140.016 15.2381L140.017 15.2128V12.8298L140.016 12.8044C140.003 12.6792 139.894 12.5816 139.763 12.5816ZM138.237 12.5816C138.106 12.5816 137.997 12.6792 137.984 12.8044L137.983 12.8298V15.2128L137.984 15.2381C137.997 15.3633 138.106 15.461 138.237 15.461C138.369 15.461 138.477 15.3633 138.49 15.2381L138.492 15.2128V12.8298L138.49 12.8044C138.477 12.6792 138.369 12.5816 138.237 12.5816ZM139.034 10.696L139 10.695C138.703 10.695 138.459 10.9218 138.442 11.2079L138.441 11.2413L139.559 11.2411C139.559 10.9507 139.327 10.7132 139.034 10.696Z" fill="white"/>
<path d="M52.448 46H50.624V40.664H52.448C54.104 40.664 55.184 41.824 55.184 43.336C55.184 44.856 54.104 46 52.448 46ZM52.448 45.408C53.744 45.408 54.496 44.48 54.496 43.336C54.496 42.184 53.768 41.256 52.448 41.256H51.288V45.408H52.448ZM59.4496 46H58.8496V45.456C58.5536 45.792 58.0496 46.096 57.4736 46.096C56.6656 46.096 56.2416 45.704 56.2416 44.864V42.136H56.8416V44.68C56.8416 45.36 57.1856 45.56 57.7056 45.56C58.1776 45.56 58.6256 45.288 58.8496 44.976V42.136H59.4496V46ZM65.9518 46H65.3518V43.376C65.3518 42.888 65.1358 42.576 64.6398 42.576C64.2398 42.576 63.8158 42.864 63.6158 43.168V46H63.0158V43.376C63.0158 42.888 62.8078 42.576 62.3038 42.576C61.9118 42.576 61.4958 42.864 61.2878 43.176V46H60.6878V42.136H61.2878V42.696C61.4478 42.448 61.9678 42.04 62.5358 42.04C63.1278 42.04 63.4638 42.36 63.5758 42.76C63.7918 42.408 64.3118 42.04 64.8718 42.04C65.5758 42.04 65.9518 42.432 65.9518 43.208V46ZM72.4528 46H71.8528V43.376C71.8528 42.888 71.6368 42.576 71.1408 42.576C70.7408 42.576 70.3168 42.864 70.1168 43.168V46H69.5168V43.376C69.5168 42.888 69.3088 42.576 68.8048 42.576C68.4128 42.576 67.9968 42.864 67.7888 43.176V46H67.1888V42.136H67.7888V42.696C67.9488 42.448 68.4688 42.04 69.0368 42.04C69.6288 42.04 69.9648 42.36 70.0768 42.76C70.2928 42.408 70.8128 42.04 71.3728 42.04C72.0768 42.04 72.4528 42.432 72.4528 43.208V46ZM73.4737 47.512L73.5697 46.968C73.6577 47.008 73.8017 47.032 73.8977 47.032C74.1617 47.032 74.3377 46.944 74.4737 46.624L74.7297 46.04L73.1137 42.136H73.7617L75.0497 45.304L76.3297 42.136H76.9857L75.0497 46.784C74.8177 47.344 74.4257 47.56 73.9137 47.568C73.7857 47.568 73.5857 47.544 73.4737 47.512ZM80.0501 41.584C79.8341 41.584 79.6501 41.408 79.6501 41.184C79.6501 40.96 79.8341 40.776 80.0501 40.776C80.2741 40.776 80.4581 40.96 80.4581 41.184C80.4581 41.408 80.2741 41.584 80.0501 41.584ZM80.3541 46H79.7541V42.136H80.3541V46ZM86.8549 46H86.2549V43.376C86.2549 42.888 86.0389 42.576 85.5429 42.576C85.1429 42.576 84.7189 42.864 84.5189 43.168V46H83.9189V43.376C83.9189 42.888 83.7109 42.576 83.2069 42.576C82.8149 42.576 82.3989 42.864 82.1909 43.176V46H81.5909V42.136H82.1909V42.696C82.3509 42.448 82.8709 42.04 83.4389 42.04C84.0309 42.04 84.3669 42.36 84.4789 42.76C84.6949 42.408 85.2149 42.04 85.7749 42.04C86.4789 42.04 86.8549 42.432 86.8549 43.208V46ZM91.1079 46H90.5079V45.56C90.1879 45.912 89.7479 46.096 89.2279 46.096C88.5719 46.096 87.8759 45.656 87.8759 44.816C87.8759 43.952 88.5719 43.544 89.2279 43.544C89.7559 43.544 90.1959 43.712 90.5079 44.072V43.376C90.5079 42.856 90.0919 42.56 89.5319 42.56C89.0679 42.56 88.6919 42.728 88.3479 43.096L88.0679 42.68C88.4839 42.248 88.9799 42.04 89.6119 42.04C90.4279 42.04 91.1079 42.408 91.1079 43.344V46ZM89.4439 45.664C89.8679 45.664 90.2759 45.504 90.5079 45.184V44.456C90.2759 44.136 89.8679 43.976 89.4439 43.976C88.8839 43.976 88.4919 44.328 88.4919 44.824C88.4919 45.312 88.8839 45.664 89.4439 45.664ZM93.9026 47.568C93.2466 47.568 92.7986 47.44 92.3426 46.992L92.6466 46.544C92.9666 46.928 93.3506 47.072 93.9026 47.072C94.5426 47.072 95.1426 46.76 95.1426 45.912V45.36C94.8626 45.752 94.3906 46.048 93.8466 46.048C92.8386 46.048 92.1266 45.296 92.1266 44.048C92.1266 42.808 92.8306 42.04 93.8466 42.04C94.3666 42.04 94.8306 42.296 95.1426 42.72V42.136H95.7426V45.888C95.7426 47.168 94.8466 47.568 93.9026 47.568ZM93.9906 45.52C94.4706 45.52 94.9346 45.224 95.1426 44.888V43.2C94.9346 42.864 94.4706 42.576 93.9906 42.576C93.2146 42.576 92.7506 43.192 92.7506 44.048C92.7506 44.896 93.2146 45.52 93.9906 45.52ZM98.7284 46.096C97.5844 46.096 96.7604 45.272 96.7604 44.064C96.7604 42.944 97.5604 42.04 98.6644 42.04C99.8324 42.04 100.52 42.952 100.52 44.112V44.264H97.3924C97.4404 44.992 97.9524 45.6 98.7844 45.6C99.2244 45.6 99.6724 45.424 99.9764 45.112L100.264 45.504C99.8804 45.888 99.3604 46.096 98.7284 46.096ZM99.9284 43.824C99.9204 43.248 99.5364 42.536 98.6564 42.536C97.8324 42.536 97.4244 43.232 97.3924 43.824H99.9284Z" fill="black"/>
</svg>
