<svg width="20" height="20" viewBox="0 0 20 20" fill="none" xmlns="http://www.w3.org/2000/svg">
<mask id="path-1-inside-1_589_28335" fill="white">
<path d="M5.84074 4.8125H2.3363C1.71667 4.8125 1.12243 5.05867 0.684286 5.49685C0.246145 5.93503 0 6.52934 0 7.14902V17.6634C0 18.2831 0.246145 18.8774 0.684286 19.3155C1.12243 19.7537 1.71667 19.9999 2.3363 19.9999H12.8496C13.4693 19.9999 14.0635 19.7537 14.5016 19.3155C14.9398 18.8774 15.1859 18.2831 15.1859 17.6634V14.1586"/>
</mask>
<path d="M5.84074 6.3125C6.66917 6.3125 7.34074 5.64093 7.34074 4.8125C7.34074 3.98407 6.66917 3.3125 5.84074 3.3125V6.3125ZM2.3363 4.8125V3.3125V4.8125ZM0 7.14902H-1.5H0ZM0 17.6634H-1.5H0ZM16.6859 14.1586C16.6859 13.3302 16.0144 12.6586 15.1859 12.6586C14.3575 12.6586 13.6859 13.3302 13.6859 14.1586H16.6859ZM5.84074 3.3125H2.3363V6.3125H5.84074V3.3125ZM2.3363 3.3125C1.3188 3.3125 0.343009 3.71674 -0.376426 4.43624L1.745 6.55746C1.90184 6.4006 2.11454 6.3125 2.3363 6.3125V3.3125ZM-0.376426 4.43624C-1.09586 5.15574 -1.5 6.13156 -1.5 7.14902H1.5C1.5 6.92712 1.58814 6.71433 1.745 6.55746L-0.376426 4.43624ZM-1.5 7.14902V17.6634H1.5V7.14902H-1.5ZM-1.5 17.6634C-1.5 18.6808 -1.09585 19.6567 -0.376426 20.3762L1.745 18.2549C1.58814 18.0981 1.5 17.8853 1.5 17.6634H-1.5ZM-0.376426 20.3762C0.343008 21.0957 1.3188 21.4999 2.3363 21.4999V18.4999C2.11455 18.4999 1.90184 18.4118 1.745 18.2549L-0.376426 20.3762ZM2.3363 21.4999H12.8496V18.4999H2.3363V21.4999ZM12.8496 21.4999C13.8671 21.4999 14.8429 21.0957 15.5624 20.3762L13.4409 18.2549C13.2841 18.4118 13.0714 18.4999 12.8496 18.4999V21.4999ZM15.5624 20.3762C16.2818 19.6567 16.6859 18.6808 16.6859 17.6634H13.6859C13.6859 17.8853 13.5978 18.0981 13.4409 18.2549L15.5624 20.3762ZM16.6859 17.6634V14.1586H13.6859V17.6634H16.6859Z" fill="black" mask="url(#path-1-inside-1_589_28335)"/>
<path d="M18.7442 3.70034L9.03458 13.4109H6.59082V10.9667L16.3004 1.25617C16.6245 0.932066 17.064 0.75 17.5223 0.75C17.9806 0.75 18.4201 0.932066 18.7442 1.25617C19.0683 1.58027 19.2503 2.01987 19.2503 2.47826C19.2503 2.93664 19.0683 3.37624 18.7442 3.70034Z" stroke="black" stroke-width="1.5" stroke-linecap="round" stroke-linejoin="round"/>
<path d="M14.0176 2.47656L17.522 5.98135" stroke="black" stroke-width="1.5" stroke-linecap="round" stroke-linejoin="round"/>
</svg>
