<svg width="69" height="72" viewBox="0 0 69 72" fill="none" xmlns="http://www.w3.org/2000/svg">
<circle cx="34.5" cy="34.5" r="34.5" fill="#E2E2E2"/>
<path d="M34.5001 15.7734C39.6715 15.7734 43.8643 19.9663 43.8643 25.1377C43.8643 30.3091 39.6715 34.502 34.5001 34.502C29.3286 34.502 25.1358 30.3091 25.1358 25.1377C25.1358 19.9663 29.3286 15.7734 34.5001 15.7734ZM34.5001 53.2306C34.5001 53.2306 53.2286 53.2306 53.2286 48.5484C53.2286 42.9299 44.0984 36.8431 34.5001 36.8431C24.9017 36.8431 15.7715 42.9299 15.7715 48.5484C15.7715 53.2306 34.5001 53.2306 34.5001 53.2306Z" fill="white"/>
<circle cx="55" cy="63" r="9" fill="white"/>
<path d="M58.3851 58.1627C58.4893 58.0585 58.6306 58 58.7779 58C58.9252 58 59.0665 58.0585 59.1707 58.1627L60.8373 59.8293C60.9415 59.9335 61 60.0748 61 60.2221C61 60.3694 60.9415 60.5107 60.8373 60.6149L55.8373 65.615C55.7331 65.7192 55.5918 65.7777 55.4445 65.7778H53.7778C53.6305 65.7778 53.4892 65.7192 53.385 65.615C53.2808 65.5108 53.2222 65.3695 53.2222 65.2222V63.5555C53.2223 63.4082 53.2808 63.2669 53.385 63.1627L58.3851 58.1627ZM54.3334 63.7855V64.6666H55.2145L59.659 60.2221L58.7779 59.341L54.3334 63.7855ZM51 60.2221C51 59.9274 51.1171 59.6448 51.3254 59.4364C51.5338 59.2281 51.8164 59.111 52.1111 59.111H54.8889C55.0363 59.111 55.1776 59.1695 55.2818 59.2737C55.386 59.3779 55.4445 59.5192 55.4445 59.6666C55.4445 59.8139 55.386 59.9552 55.2818 60.0594C55.1776 60.1636 55.0363 60.2221 54.8889 60.2221H52.1111V66.8889H58.7779V64.1111C58.7779 63.9637 58.8364 63.8224 58.9406 63.7182C59.0448 63.614 59.1861 63.5555 59.3334 63.5555C59.4808 63.5555 59.6221 63.614 59.7263 63.7182C59.8305 63.8224 59.889 63.9637 59.889 64.1111V66.8889C59.889 67.1836 59.7719 67.4662 59.5636 67.6746C59.3552 67.8829 59.0726 68 58.7779 68H52.1111C51.8164 68 51.5338 67.8829 51.3254 67.6746C51.1171 67.4662 51 67.1836 51 66.8889V60.2221Z" fill="#0D0D0D"/>
</svg>
