<svg width="9" height="6" viewBox="0 0 9 6" fill="none" xmlns="http://www.w3.org/2000/svg">
<path d="M4.5 0C2.45455 0 0.707727 1.244 0 3C0.707727 4.756 2.45455 6 4.5 6C6.54545 6 8.29227 4.756 9 3C8.29227 1.244 6.54545 0 4.5 0ZM4.5 5C3.37091 5 2.45455 4.104 2.45455 3C2.45455 1.896 3.37091 1 4.5 1C5.62909 1 6.54545 1.896 6.54545 3C6.54545 4.104 5.62909 5 4.5 5ZM4.5 1.8C3.82091 1.8 3.27273 2.336 3.27273 3C3.27273 3.664 3.82091 4.2 4.5 4.2C5.17909 4.2 5.72727 3.664 5.72727 3C5.72727 2.336 5.17909 1.8 4.5 1.8Z" fill="black"/>
</svg>
