<svg width="41" height="40" viewBox="0 0 41 40" fill="none" xmlns="http://www.w3.org/2000/svg">
<path d="M4.09368 26.7022C2.25383 20.5897 17.8006 15.2126 27.6899 14.753C26.7239 17.6484 25.39 21.0034 24.0561 24.1745C22.9522 24.2664 18.9045 24.772 15.5468 26.7022C11.0391 29.3678 20.2844 34.4233 21.6183 34.4233C22.9062 34.4233 32.5195 11.0303 32.1515 8.27282C31.7835 5.92893 7.7274 14.2015 0.321975 16.7752C0.0919929 17.9241 0 19.0731 0 20.268C0 29.8734 6.71548 37.9161 15.6848 39.9843C10.3032 36.3995 5.1056 30.1032 4.09368 26.7022Z" fill="#22914F"/>
<path d="M28.8397 1.8843C26.2179 0.689379 23.3202 0 20.2844 0C12.787 0 6.25549 4.04436 2.75977 10.0649C7.31341 8.31851 18.5365 4.18223 28.8397 1.8843Z" fill="#22914F"/>
<path d="M39.0049 12.501C37.257 20.9574 32.1054 32.1253 28.0117 39.0191C35.3711 35.9858 40.5687 28.7244 40.5687 20.268C40.5687 17.5105 40.0168 14.8908 39.0049 12.501Z" fill="#22914F"/>
</svg>
