<svg width="18" height="16" viewBox="0 0 18 16" fill="none" xmlns="http://www.w3.org/2000/svg">
<path d="M3.89539 16H13.885C14.9653 16 15.5969 15.3913 15.5969 14.3186V7.37232L16.5782 8.27008C16.738 8.42226 16.913 8.52877 17.126 8.52877C17.4836 8.52877 17.7727 8.30813 17.7727 7.94293C17.7727 7.7147 17.689 7.57014 17.5446 7.44082L14.9044 5.02898V0.54779C14.9044 0.213013 14.6914 0 14.3567 0H13.36C13.0328 0 12.8046 0.213013 12.8046 0.54779V3.11933L9.79935 0.380418C9.53306 0.136956 9.21351 0 8.88636 0C8.55922 0 8.23966 0.136956 7.97338 0.380418L0.228238 7.44082C0.0913145 7.57014 0 7.7147 0 7.94293C0 8.30813 0.289103 8.52877 0.6467 8.52877C0.867342 8.52877 1.04231 8.42226 1.19449 8.27008L2.17593 7.37992V14.3186C2.17593 15.3913 2.80741 16 3.89539 16ZM11.0775 9.72326C11.0775 9.37329 10.8493 9.15265 10.4993 9.15265H7.27341C6.92344 9.15265 6.68761 9.37329 6.68761 9.72326V14.7751H4.15408C3.66715 14.7751 3.40087 14.5088 3.40087 14.0143V6.26152L8.62008 1.50641C8.69617 1.43032 8.78745 1.38468 8.88636 1.38468C8.98527 1.38468 9.07656 1.42273 9.16027 1.50641L14.3718 6.26152V14.0143C14.3718 14.5088 14.1055 14.7751 13.6263 14.7751H11.0775V9.72326Z" fill="white"/>
</svg>
