<svg width="14" height="14" viewBox="0 0 14 14" fill="none" xmlns="http://www.w3.org/2000/svg">
<path d="M8.16669 5.25L9.91669 7L8.16669 8.75" stroke="black" stroke-width="0.5" stroke-linecap="round" stroke-linejoin="round"/>
<path d="M9.91665 7.00065H4.08331M5.83331 4.66732V2.91732C5.83331 2.76261 5.89477 2.61424 6.00417 2.50484C6.11356 2.39544 6.26194 2.33398 6.41665 2.33398H11.6666C11.8214 2.33398 11.9697 2.39544 12.0791 2.50484C12.1885 2.61424 12.25 2.76261 12.25 2.91732V11.084C12.25 11.2387 12.1885 11.3871 12.0791 11.4965C11.9697 11.6059 11.8214 11.6673 11.6666 11.6673H6.41665C6.26194 11.6673 6.11356 11.6059 6.00417 11.4965C5.89477 11.3871 5.83331 11.2387 5.83331 11.084V9.33398" stroke="black" stroke-width="0.5" stroke-linecap="round" stroke-linejoin="round"/>
</svg>
