<svg width="16" height="16" viewBox="0 0 16 16" fill="none" xmlns="http://www.w3.org/2000/svg">
<path d="M10.6667 11.3333V13.3333C10.6667 13.5101 10.5964 13.6797 10.4714 13.8047C10.3464 13.9298 10.1768 14 10 14H2.66667C2.48986 14 2.32029 13.9298 2.19526 13.8047C2.07024 13.6797 2 13.5101 2 13.3333V2.66667C2 2.48986 2.07024 2.32029 2.19526 2.19526C2.32029 2.07024 2.48986 2 2.66667 2H10C10.1768 2 10.3464 2.07024 10.4714 2.19526C10.5964 2.32029 10.6667 2.48986 10.6667 2.66667V4.66667" stroke="white" stroke-linecap="round" stroke-linejoin="round"/>
<path d="M10.6666 6.6665V7.99984H11.3333M7.33325 7.99984C7.33325 8.65911 7.52875 9.30357 7.89502 9.85174C8.26129 10.3999 8.78189 10.8271 9.39097 11.0794C10.0001 11.3317 10.6703 11.3977 11.3169 11.2691C11.9635 11.1405 12.5574 10.823 13.0236 10.3569C13.4898 9.89068 13.8073 9.29674 13.9359 8.65014C14.0645 8.00353 13.9985 7.33331 13.7462 6.72423C13.4939 6.11514 13.0667 5.59454 12.5185 5.22827C11.9703 4.862 11.3259 4.6665 10.6666 4.6665C9.78253 4.6665 8.93468 5.01769 8.30956 5.64281C7.68444 6.26794 7.33325 7.11578 7.33325 7.99984Z" stroke="white" stroke-linecap="round" stroke-linejoin="round"/>
</svg>
