<svg width="17" height="21" viewBox="0 0 17 21" fill="none" xmlns="http://www.w3.org/2000/svg">
<path d="M14.875 21H2.125C0.951394 21 0 20.0599 0 18.9001V2.10083C0 0.941081 0.951394 0.000921334 2.125 0.000921334H9.5625C9.57206 -0.000307111 9.58162 -0.000307111 9.59119 0.000921334H9.59756C9.60755 0.0040187 9.61796 0.00612915 9.62838 0.0072211C9.72209 0.0131533 9.81463 0.0311494 9.90356 0.0607686H9.9195H9.93544H9.94819C9.96784 0.074334 9.98623 0.0894323 10.0034 0.105917C10.1191 0.156755 10.2247 0.2279 10.3148 0.315907L16.6898 6.61563C16.7788 6.70464 16.8508 6.80887 16.9023 6.92326C16.9118 6.94636 16.9193 6.96841 16.9267 6.99256L16.9373 7.02196C16.967 7.10952 16.9845 7.20064 16.9894 7.29285C16.9903 7.30331 16.9928 7.31356 16.9968 7.3233V7.3296C16.9985 7.33647 16.9996 7.34351 17 7.3506V18.9001C17 19.457 16.7761 19.9911 16.3776 20.3849C15.979 20.7788 15.4385 21 14.875 21ZM11.0755 12.6004V17.8501H12.0743V15.7082H13.6255V14.8284H12.0743V13.4834H13.8125V12.6004H11.0755ZM7.14425 12.6004V17.8501H8.42562C8.96314 17.8763 9.48366 17.66 9.84087 17.2622C10.2073 16.8001 10.3909 16.2219 10.3573 15.6358V14.7853C10.3819 14.2053 10.1932 13.6362 9.826 13.1831C9.48026 12.7942 8.97557 12.5801 8.45219 12.6004H7.14425ZM3.1875 12.6004V17.8501H4.18625V16.0033H4.85138C5.29552 16.0275 5.72934 15.8651 6.04562 15.556C6.34746 15.2225 6.50399 14.7849 6.48125 14.338C6.50101 13.8805 6.34456 13.4326 6.0435 13.0844C5.7457 12.7581 5.31578 12.5805 4.87156 12.6004H3.1875ZM9.5625 2.10083V7.3506H14.875L9.5625 2.10083ZM8.44263 16.9703H8.143V13.4834H8.50637C8.76446 13.4684 9.01255 13.5838 9.16513 13.79C9.32089 14.1084 9.38761 14.4622 9.3585 14.8147V15.7271C9.38188 16.0628 9.30814 16.3982 9.146 16.6941C8.97186 16.895 8.70878 16.9983 8.44263 16.9703ZM4.87156 15.1203H4.18519V13.4834H4.88112C5.05486 13.4853 5.21542 13.5753 5.30613 13.7217C5.42111 13.9092 5.47662 14.1264 5.4655 14.3454C5.47882 14.5496 5.42396 14.7525 5.30931 14.9229C5.20364 15.0539 5.041 15.1273 4.87156 15.1203Z" fill="#A1A1A1"/>
</svg>
