<svg width="10" height="12" viewBox="0 0 10 12" fill="none" xmlns="http://www.w3.org/2000/svg">
<path d="M1 1.55556V3.02222C0.999747 3.15203 1.04496 3.27783 1.12778 3.37778L3.65 6.4C3.73282 6.49995 3.77803 6.62575 3.77778 6.75556V11L6 9.88889V6.75556C5.99975 6.62575 6.04496 6.49995 6.12778 6.4L8.65 3.37778C8.73282 3.27783 8.77803 3.15203 8.77778 3.02222V1.55556C8.77778 1.40821 8.71925 1.26691 8.61506 1.16272C8.51087 1.05853 8.36957 1 8.22222 1H1.55556C1.40821 1 1.26691 1.05853 1.16272 1.16272C1.05853 1.26691 1 1.40821 1 1.55556Z" stroke="white" stroke-linecap="round" stroke-linejoin="round"/>
</svg>
