<svg width="27" height="28" viewBox="0 0 27 28" fill="none" xmlns="http://www.w3.org/2000/svg">
<path d="M13.503 8.13043H13.5C12.3463 8.13043 11.2194 8.47597 10.2618 9.12218C9.30425 9.7683 8.55943 10.6856 8.11999 11.757C7.68059 12.8283 7.56577 14.0066 7.78965 15.1433C8.01354 16.28 8.56641 17.3254 9.37986 18.1469C10.1934 18.9685 11.2311 19.5292 12.3624 19.7564C13.4936 19.9837 14.6661 19.8669 15.7312 19.4214C16.7961 18.976 17.7047 18.2223 18.3432 17.2572C18.9817 16.2922 19.3218 15.1587 19.3218 14L19.3218 13.997C19.3173 12.4457 18.7051 10.9573 17.6159 9.85734C16.5264 8.75708 15.048 8.1351 13.503 8.13043ZM22.8212 15.2206L22.7414 15.7886L23.1913 16.1443L25.9141 18.2971L23.395 22.6892L20.2016 21.3936L19.6671 21.1768L19.2118 21.5309C18.5607 22.0372 17.8484 22.4572 17.0923 22.7809L16.5734 23.003L16.4954 23.5621L16.016 27H10.9812L10.5046 23.5821L10.4261 23.0197L9.90288 22.7989C9.14812 22.4805 8.43852 22.0616 7.7929 21.5534L7.33656 21.1941L6.79838 21.4125L3.60473 22.7082L1.08591 18.3171L3.8087 16.1643L4.25669 15.8101L4.17924 15.2443C4.12277 14.8317 4.09284 14.4158 4.08965 13.9992C4.09218 13.591 4.12195 13.1835 4.17875 12.7794L4.25857 12.2114L3.8087 11.8557L1.0859 9.70293L3.60502 5.31076L6.79838 6.60638L7.33289 6.82324L7.78823 6.46913C8.43931 5.96281 9.15158 5.54278 9.90766 5.21914L10.4266 4.99701L10.5046 4.43795L10.984 1H16.0188L16.4954 4.41786L16.5739 4.98077L17.0978 5.20136C17.8535 5.51959 18.564 5.93841 19.2105 6.44687L19.6669 6.80587L20.2049 6.58739L23.3953 5.29185L25.9141 9.68345L23.1913 11.8363L22.7433 12.1905L22.8208 12.7563C22.8772 13.1687 22.9071 13.5844 22.9103 14.0008C22.9078 14.409 22.878 14.8165 22.8212 15.2206Z" stroke="white" stroke-width="2"/>
</svg>
