<svg width="14" height="14" viewBox="0 0 14 14" fill="none" xmlns="http://www.w3.org/2000/svg">
<path d="M11.2525 5.47768L12.3608 6.58601C12.4155 6.64024 12.4589 6.70476 12.4885 6.77584C12.5181 6.84693 12.5334 6.92317 12.5334 7.00018C12.5334 7.07719 12.5181 7.15343 12.4885 7.22452C12.4589 7.2956 12.4155 7.36012 12.3608 7.41435L11.2525 8.52268C11.1447 8.63133 11.084 8.77798 11.0833 8.93101V10.5002C11.0833 10.6549 11.0219 10.8033 10.9125 10.9127C10.8031 11.0221 10.6547 11.0835 10.5 11.0835H8.93083C8.7778 11.0842 8.63115 11.1449 8.5225 11.2527L7.41416 12.361C7.35993 12.4157 7.29542 12.4591 7.22433 12.4887C7.15325 12.5183 7.077 12.5336 7 12.5336C6.92299 12.5336 6.84674 12.5183 6.77566 12.4887C6.70457 12.4591 6.64006 12.4157 6.58583 12.361L5.4775 11.2527C5.36884 11.1449 5.22219 11.0842 5.06916 11.0835H3.5C3.34529 11.0835 3.19691 11.0221 3.08752 10.9127C2.97812 10.8033 2.91666 10.6549 2.91666 10.5002V8.93101C2.91602 8.77798 2.85526 8.63133 2.7475 8.52268L1.63916 7.41435C1.58449 7.36012 1.54109 7.2956 1.51148 7.22452C1.48186 7.15343 1.46661 7.07719 1.46661 7.00018C1.46661 6.92317 1.48186 6.84693 1.51148 6.77584C1.54109 6.70476 1.58449 6.64024 1.63916 6.58601L2.7475 5.47768C2.85526 5.36903 2.91602 5.22238 2.91666 5.06935V3.50018C2.91666 3.34547 2.97812 3.1971 3.08752 3.0877C3.19691 2.9783 3.34529 2.91685 3.5 2.91685H5.06916C5.22219 2.9162 5.36884 2.85545 5.4775 2.74768L6.58583 1.63935C6.64006 1.58467 6.70457 1.54127 6.77566 1.51166C6.84674 1.48204 6.92299 1.4668 7 1.4668C7.077 1.4668 7.15325 1.48204 7.22433 1.51166C7.29542 1.54127 7.35993 1.58467 7.41416 1.63935L8.5225 2.74768C8.63115 2.85545 8.7778 2.9162 8.93083 2.91685H10.5C10.6547 2.91685 10.8031 2.9783 10.9125 3.0877C11.0219 3.1971 11.0833 3.34547 11.0833 3.50018V5.06935C11.084 5.22238 11.1447 5.36903 11.2525 5.47768ZM7 5.25018C6.65388 5.25018 6.31553 5.35281 6.02775 5.54511C5.73996 5.7374 5.51566 6.01071 5.38321 6.33048C5.25075 6.65025 5.2161 7.00212 5.28362 7.34159C5.35115 7.68105 5.51782 7.99287 5.76256 8.23762C6.0073 8.48236 6.31912 8.64903 6.65859 8.71655C6.99805 8.78408 7.34992 8.74942 7.66969 8.61697C7.98946 8.48451 8.26278 8.26021 8.45507 7.97243C8.64736 7.68464 8.75 7.3463 8.75 7.00018C8.75 6.53605 8.56562 6.09093 8.23743 5.76274C7.90924 5.43455 7.46412 5.25018 7 5.25018Z" stroke="black" stroke-width="0.5" stroke-linecap="round" stroke-linejoin="round"/>
</svg>
