<svg width="10" height="13" viewBox="0 0 10 13" fill="none" xmlns="http://www.w3.org/2000/svg">
<path d="M10 12.8571H8.75V11.6327C8.75 11.1455 8.55246 10.6783 8.20083 10.3339C7.84919 9.98943 7.37228 9.79592 6.875 9.79592H3.125C2.62772 9.79592 2.15081 9.98943 1.79917 10.3339C1.44754 10.6783 1.25 11.1455 1.25 11.6327V12.8571H0V11.6327C0 10.8208 0.32924 10.0421 0.915291 9.46804C1.50134 8.89395 2.2962 8.57143 3.125 8.57143H6.875C7.7038 8.57143 8.49866 8.89395 9.08471 9.46804C9.67076 10.0421 10 10.8208 10 11.6327V12.8571ZM5 7.34694C4.50754 7.34694 4.01991 7.25192 3.56494 7.06731C3.10997 6.8827 2.69657 6.61212 2.34835 6.271C2.00013 5.92989 1.72391 5.52493 1.53545 5.07925C1.347 4.63356 1.25 4.15588 1.25 3.67347C1.25 3.19106 1.347 2.71338 1.53545 2.26769C1.72391 1.82201 2.00013 1.41705 2.34835 1.07593C2.69657 0.734821 3.10997 0.464235 3.56494 0.279626C4.01991 0.0950171 4.50754 -7.18842e-09 5 0C5.99456 1.45177e-08 6.94839 0.387025 7.65165 1.07593C8.35491 1.76484 8.75 2.6992 8.75 3.67347C8.75 4.64773 8.35491 5.5821 7.65165 6.271C6.94839 6.95991 5.99456 7.34694 5 7.34694ZM5 6.12245C5.66304 6.12245 6.29893 5.86443 6.76777 5.40516C7.23661 4.94589 7.5 4.32298 7.5 3.67347C7.5 3.02396 7.23661 2.40105 6.76777 1.94178C6.29893 1.48251 5.66304 1.22449 5 1.22449C4.33696 1.22449 3.70107 1.48251 3.23223 1.94178C2.76339 2.40105 2.5 3.02396 2.5 3.67347C2.5 4.32298 2.76339 4.94589 3.23223 5.40516C3.70107 5.86443 4.33696 6.12245 5 6.12245Z" fill="black"/>
</svg>
