<svg width="29" height="26" viewBox="0 0 29 26" fill="none" xmlns="http://www.w3.org/2000/svg">
<path d="M14.5 10C12.4545 10 10.7077 11.244 10 13C10.7077 14.756 12.4545 16 14.5 16C16.5455 16 18.2923 14.756 19 13C18.2923 11.244 16.5455 10 14.5 10ZM14.5 15C13.3709 15 12.4545 14.104 12.4545 13C12.4545 11.896 13.3709 11 14.5 11C15.6291 11 16.5455 11.896 16.5455 13C16.5455 14.104 15.6291 15 14.5 15ZM14.5 11.8C13.8209 11.8 13.2727 12.336 13.2727 13C13.2727 13.664 13.8209 14.2 14.5 14.2C15.1791 14.2 15.7273 13.664 15.7273 13C15.7273 12.336 15.1791 11.8 14.5 11.8Z" fill="black"/>
</svg>
