<svg width="16" height="16" viewBox="0 0 16 16" fill="none" xmlns="http://www.w3.org/2000/svg">
<path d="M13.3333 2H3.33333C3.15652 2 2.98695 2.07024 2.86193 2.19526C2.7369 2.32029 2.66667 2.48986 2.66667 2.66667V13.3333C2.66667 13.5101 2.7369 13.6797 2.86193 13.8047C2.98695 13.9298 3.15652 14 3.33333 14H13.3333M13.3333 2C13.5101 2 13.6797 2.07024 13.8047 2.19526C13.9298 2.32029 14 2.48986 14 2.66667V13.3333C14 13.5101 13.9298 13.6797 13.8047 13.8047C13.6797 13.9298 13.5101 14 13.3333 14M13.3333 2H11.3333V14H13.3333M2 5.33333H3.33333M2 8H3.33333M2 10.6667H3.33333" stroke="white" stroke-linecap="round" stroke-linejoin="round"/>
</svg>
