<svg width="16" height="16" viewBox="0 0 16 16" fill="none" xmlns="http://www.w3.org/2000/svg">
<path d="M8.66667 10H7.33333V8.66667H8.66667V10ZM10.6667 2.66667C10.6667 2.48986 10.5964 2.32029 10.4714 2.19526C10.3464 2.07024 10.1768 2 10 2H6C5.82319 2 5.65362 2.07024 5.5286 2.19526C5.40357 2.32029 5.33333 2.48986 5.33333 2.66667V4.66667H10.6667V2.66667ZM14 13.3333V5.33333C14 5.15652 13.9298 4.98695 13.8047 4.86193C13.6797 4.7369 13.5101 4.66667 13.3333 4.66667H2.66667C2.48986 4.66667 2.32029 4.7369 2.19526 4.86193C2.07024 4.98695 2 5.15652 2 5.33333V13.3333C2 13.5101 2.07024 13.6797 2.19526 13.8047C2.32029 13.9298 2.48986 14 2.66667 14H13.3333C13.5101 14 13.6797 13.9298 13.8047 13.8047C13.9298 13.6797 14 13.5101 14 13.3333Z" stroke="white" stroke-linecap="round" stroke-linejoin="round"/>
<path d="M7.33345 9.33313H5.76012C5.24272 9.32863 4.73781 9.1737 4.30693 8.88724C3.87605 8.60077 3.53781 8.19514 3.33345 7.71979L2.12012 4.95312" stroke="white" stroke-linecap="round" stroke-linejoin="round"/>
<path d="M13.8801 4.95312L12.6667 7.71979C12.4624 8.19514 12.1242 8.60077 11.6933 8.88724C11.2624 9.1737 10.7575 9.32863 10.2401 9.33313H8.66675" stroke="white" stroke-linecap="round" stroke-linejoin="round"/>
</svg>
